# xmcd
#
# Track frame offsets:
#	150
#	12479
#	23279
#	38321
#	57214
#	71446
#	86575
#	99633
#	118946
#	130666
#	148026
#	160434
#	178706
#
# Disc length: 2633 seconds
# Revision: 0
# Processed by: cddbd v1.5.2PL0 Copyright (c) Steve Scherf et al.
# Submitted via: dBpowerAMP V12.0
#
DISCID=a40a470d
DTITLE=Nevada - 20 Years
DYEAR=2014
DGENRE=Country
TTITLE0=Hello Honky Tonk
TTITLE1=What's a Guy gotta do
TTITLE2=Love Deluxe
TTITLE3=New dreams of old Mexico
TTITLE4=Cut him loose
TTITLE5=I'm not gona cry for you
TTITLE6=Country Music gotta hold on me
TTITLE7=Waitin' on a Sunny Day
TTITLE8=This one's a keeper
TTITLE9=Midnight Special
TTITLE10=Singin' the Blues
TTITLE11=When I get over today
TTITLE12=Walk softly on this heart of mine
EXTD=
EXTT0=
EXTT1=
EXTT2=
EXTT3=
EXTT4=
EXTT5=
EXTT6=
EXTT7=
EXTT8=
EXTT9=
EXTT10=
EXTT11=
EXTT12=
PLAYORDER=
